<mxfile host="app.diagrams.net" modified="2023-03-28T11:47:13.673Z" agent="Mozilla/5.0 (Windows NT 10.0; Win64; x64) AppleWebKit/537.36 (KHTML, like Gecko) Chrome/111.0.0.0 Safari/537.36" etag="EFY989_W-BL9n2irBItF" version="21.1.1" type="github">
  <diagram name="Page-1" id="Ls7K0tPQuNfY7hqSEUxq">
    <mxGraphModel dx="1290" dy="549" grid="1" gridSize="10" guides="1" tooltips="1" connect="1" arrows="1" fold="1" page="1" pageScale="1" pageWidth="850" pageHeight="1100" math="0" shadow="0">
      <root>
        <mxCell id="0" />
        <mxCell id="1" parent="0" />
        <mxCell id="lqsAXwYk-Pn6xzD3KIGw-6" value="管理员" style="shape=umlActor;verticalLabelPosition=bottom;verticalAlign=top;html=1;" parent="1" vertex="1">
          <mxGeometry x="750" y="500" width="30" height="60" as="geometry" />
        </mxCell>
        <mxCell id="lqsAXwYk-Pn6xzD3KIGw-9" value="用户上传图片" style="ellipse;whiteSpace=wrap;html=1;" parent="1" vertex="1">
          <mxGeometry x="380" y="280" width="140" height="70" as="geometry" />
        </mxCell>
        <mxCell id="lqsAXwYk-Pn6xzD3KIGw-10" value="用户选择风格" style="ellipse;whiteSpace=wrap;html=1;" parent="1" vertex="1">
          <mxGeometry x="380" y="390" width="140" height="70" as="geometry" />
        </mxCell>
        <mxCell id="lqsAXwYk-Pn6xzD3KIGw-11" value="用户查看生成图片" style="ellipse;whiteSpace=wrap;html=1;" parent="1" vertex="1">
          <mxGeometry x="380" y="490" width="140" height="70" as="geometry" />
        </mxCell>
        <mxCell id="lqsAXwYk-Pn6xzD3KIGw-12" value="用户发布作品" style="ellipse;whiteSpace=wrap;html=1;" parent="1" vertex="1">
          <mxGeometry x="140" y="495" width="140" height="70" as="geometry" />
        </mxCell>
        <mxCell id="lqsAXwYk-Pn6xzD3KIGw-13" value="用户查看作品" style="ellipse;whiteSpace=wrap;html=1;" parent="1" vertex="1">
          <mxGeometry x="140" y="617.5" width="140" height="70" as="geometry" />
        </mxCell>
        <mxCell id="lqsAXwYk-Pn6xzD3KIGw-14" value="审核图片" style="ellipse;whiteSpace=wrap;html=1;" parent="1" vertex="1">
          <mxGeometry x="540" y="442.5" width="140" height="70" as="geometry" />
        </mxCell>
        <mxCell id="lqsAXwYk-Pn6xzD3KIGw-15" value="审核用户账号" style="ellipse;whiteSpace=wrap;html=1;" parent="1" vertex="1">
          <mxGeometry x="540" y="547.5" width="140" height="70" as="geometry" />
        </mxCell>
        <mxCell id="lqsAXwYk-Pn6xzD3KIGw-28" value="用户" style="shape=umlActor;verticalLabelPosition=bottom;verticalAlign=top;html=1;" parent="1" vertex="1">
          <mxGeometry x="40" y="500" width="30" height="60" as="geometry" />
        </mxCell>
        <mxCell id="lqsAXwYk-Pn6xzD3KIGw-34" value="" style="endArrow=open;endFill=1;endSize=12;html=1;rounded=0;exitX=0.5;exitY=0.5;exitDx=0;exitDy=0;exitPerimeter=0;entryX=0;entryY=0.5;entryDx=0;entryDy=0;" parent="1" source="lqsAXwYk-Pn6xzD3KIGw-28" target="lqsAXwYk-Pn6xzD3KIGw-12" edge="1">
          <mxGeometry width="160" relative="1" as="geometry">
            <mxPoint x="80" y="530" as="sourcePoint" />
            <mxPoint x="160" y="565" as="targetPoint" />
          </mxGeometry>
        </mxCell>
        <mxCell id="lqsAXwYk-Pn6xzD3KIGw-35" value="" style="endArrow=open;endFill=1;endSize=12;html=1;rounded=0;exitX=1;exitY=1;exitDx=0;exitDy=0;exitPerimeter=0;entryX=0;entryY=0.5;entryDx=0;entryDy=0;" parent="1" source="lqsAXwYk-Pn6xzD3KIGw-28" target="lqsAXwYk-Pn6xzD3KIGw-13" edge="1">
          <mxGeometry width="160" relative="1" as="geometry">
            <mxPoint x="65" y="540" as="sourcePoint" />
            <mxPoint x="160" y="660" as="targetPoint" />
          </mxGeometry>
        </mxCell>
        <mxCell id="lqsAXwYk-Pn6xzD3KIGw-36" value="" style="endArrow=open;endFill=1;endSize=12;html=1;rounded=0;exitX=0;exitY=0.3333333333333333;exitDx=0;exitDy=0;exitPerimeter=0;entryX=1;entryY=0.5;entryDx=0;entryDy=0;" parent="1" source="lqsAXwYk-Pn6xzD3KIGw-6" target="lqsAXwYk-Pn6xzD3KIGw-14" edge="1">
          <mxGeometry width="160" relative="1" as="geometry">
            <mxPoint x="740" y="480" as="sourcePoint" />
            <mxPoint x="900" y="480" as="targetPoint" />
          </mxGeometry>
        </mxCell>
        <mxCell id="lqsAXwYk-Pn6xzD3KIGw-37" value="" style="endArrow=open;endFill=1;endSize=12;html=1;rounded=0;exitX=0.506;exitY=0.677;exitDx=0;exitDy=0;exitPerimeter=0;entryX=1;entryY=0.5;entryDx=0;entryDy=0;" parent="1" source="lqsAXwYk-Pn6xzD3KIGw-6" target="lqsAXwYk-Pn6xzD3KIGw-15" edge="1">
          <mxGeometry width="160" relative="1" as="geometry">
            <mxPoint x="760" y="530" as="sourcePoint" />
            <mxPoint x="690" y="488" as="targetPoint" />
          </mxGeometry>
        </mxCell>
        <mxCell id="lqsAXwYk-Pn6xzD3KIGw-38" value="用户登录" style="ellipse;whiteSpace=wrap;html=1;" parent="1" vertex="1">
          <mxGeometry x="140" y="720" width="140" height="70" as="geometry" />
        </mxCell>
        <mxCell id="lqsAXwYk-Pn6xzD3KIGw-39" value="用户创作" style="ellipse;whiteSpace=wrap;html=1;" parent="1" vertex="1">
          <mxGeometry x="140" y="390" width="140" height="70" as="geometry" />
        </mxCell>
        <mxCell id="lqsAXwYk-Pn6xzD3KIGw-40" value="" style="endArrow=open;endFill=1;endSize=12;html=1;rounded=0;exitX=0.75;exitY=0.1;exitDx=0;exitDy=0;exitPerimeter=0;entryX=0;entryY=0.5;entryDx=0;entryDy=0;" parent="1" source="lqsAXwYk-Pn6xzD3KIGw-28" target="lqsAXwYk-Pn6xzD3KIGw-39" edge="1">
          <mxGeometry width="160" relative="1" as="geometry">
            <mxPoint x="65" y="540" as="sourcePoint" />
            <mxPoint x="160" y="660" as="targetPoint" />
          </mxGeometry>
        </mxCell>
        <mxCell id="QdY-Qry2OtvvlMqrms4v-1" value="&amp;lt;&amp;lt;include&amp;gt;&amp;gt;" style="html=1;verticalAlign=bottom;labelBackgroundColor=none;endArrow=open;endFill=0;dashed=1;rounded=0;entryX=0;entryY=0.5;entryDx=0;entryDy=0;exitX=1;exitY=0.5;exitDx=0;exitDy=0;" edge="1" parent="1" source="lqsAXwYk-Pn6xzD3KIGw-39" target="lqsAXwYk-Pn6xzD3KIGw-9">
          <mxGeometry x="0.0155" y="34" width="160" relative="1" as="geometry">
            <mxPoint x="230" y="370" as="sourcePoint" />
            <mxPoint x="390" y="370" as="targetPoint" />
            <mxPoint as="offset" />
          </mxGeometry>
        </mxCell>
        <mxCell id="QdY-Qry2OtvvlMqrms4v-2" value="&amp;lt;&amp;lt;include&amp;gt;&amp;gt;" style="html=1;verticalAlign=bottom;labelBackgroundColor=none;endArrow=open;endFill=0;dashed=1;rounded=0;entryX=0;entryY=0.5;entryDx=0;entryDy=0;exitX=1;exitY=0.571;exitDx=0;exitDy=0;exitPerimeter=0;" edge="1" parent="1" source="lqsAXwYk-Pn6xzD3KIGw-39" target="lqsAXwYk-Pn6xzD3KIGw-10">
          <mxGeometry x="0.0795" y="7" width="160" relative="1" as="geometry">
            <mxPoint x="290" y="435" as="sourcePoint" />
            <mxPoint x="365" y="325" as="targetPoint" />
            <mxPoint as="offset" />
          </mxGeometry>
        </mxCell>
        <mxCell id="QdY-Qry2OtvvlMqrms4v-3" value="&amp;lt;&amp;lt;include&amp;gt;&amp;gt;" style="html=1;verticalAlign=bottom;labelBackgroundColor=none;endArrow=open;endFill=0;dashed=1;rounded=0;entryX=0;entryY=0.5;entryDx=0;entryDy=0;exitX=1.003;exitY=0.614;exitDx=0;exitDy=0;exitPerimeter=0;" edge="1" parent="1" source="lqsAXwYk-Pn6xzD3KIGw-39" target="lqsAXwYk-Pn6xzD3KIGw-11">
          <mxGeometry x="0.1244" y="20" width="160" relative="1" as="geometry">
            <mxPoint x="290" y="440" as="sourcePoint" />
            <mxPoint x="390" y="435" as="targetPoint" />
            <mxPoint as="offset" />
          </mxGeometry>
        </mxCell>
      </root>
    </mxGraphModel>
  </diagram>
</mxfile>
